<svg width="36" height="36" viewBox="0 0 36 36" fill="none" xmlns="http://www.w3.org/2000/svg">
<rect width="36" height="36" fill="white"/>
<path d="M17.0489 5.17705C17.3483 4.25574 18.6517 4.25574 18.9511 5.17705L21.3116 12.442C21.4455 12.854 21.8294 13.133 22.2626 13.133H29.9015C30.8702 13.133 31.273 14.3726 30.4892 14.942L24.3093 19.432C23.9588 19.6866 23.8122 20.138 23.946 20.55L26.3066 27.815C26.6059 28.7363 25.5514 29.5024 24.7677 28.933L18.5878 24.443C18.2373 24.1884 17.7627 24.1884 17.4122 24.443L11.2323 28.933C10.4486 29.5024 9.39409 28.7363 9.69344 27.815L12.054 20.55C12.1878 20.138 12.0412 19.6866 11.6907 19.432L5.51076 14.942C4.72704 14.3726 5.12982 13.133 6.09854 13.133H13.7374C14.1706 13.133 14.5545 12.854 14.6884 12.442L17.0489 5.17705Z" fill="#FFD600"/>
</svg>
